PathFileType	4	(X/Y/Z)	D:\TRACE\spotREDO_2-26-24\spot_Both_Motion_3_6-platform.trc
DataRate	CameraRate	NumFrames	NumMarkers	Units	OrigDataRate	OrigDataStartFrame	OrigNumFrames
100.00	100.00	      36	5	mm	100.00	1	      7000
Frame#	Time	Left_Front			Right_Front			Left_Aft			Right_Aft			Post			
		X1	Y1	Z1	X2	Y2	Z2	X3	Y3	Z3	X4	Y4	Z4	X5	Y5	Z5	

1	0.000	-736.41504	99.66216	-539.13562	678.43976	94.09694	-455.03601	-807.18958	-108.06703	661.83447	762.42114	-101.99676	666.16058	-42.22804	788.24414	-828.33014	
2	0.010	-736.43658	99.66648	-539.17834	678.43707	94.06149	-455.05826	-807.22003	-108.09488	661.86707	762.37891	-102.02788	666.20203	-42.38456	788.32831	-828.33398	
3	0.020	-736.45001	99.70115	-539.16156	678.48022	94.10513	-455.02261	-807.26166	-108.09013	661.82629	762.41071	-101.98277	666.21521	-42.38260	788.38141	-828.31409	
4	0.030	-736.42908	99.70165	-539.19360	678.44592	94.15644	-455.02765	-807.19849	-107.98527	661.82642	762.45837	-101.76373	666.07007	-42.32391	788.43573	-828.33948	
5	0.040	-736.42023	99.73432	-539.17572	678.42627	94.11568	-455.05536	-807.10803	-107.83682	661.89789	762.33478	-101.76329	666.07983	-42.24054	788.39758	-828.41962	
6	0.050	-736.38666	99.60839	-539.17194	678.46490	94.07264	-455.09512	-807.12073	-107.79620	661.90747	762.43213	-102.03459	666.17157	-42.07643	788.39587	-828.51196	
7	0.060	-736.43744	99.62781	-539.21100	678.35199	94.14765	-455.08978	-807.19952	-107.98950	661.82703	762.39398	-101.78465	666.07617	-42.20055	788.32172	-828.42639	
8	0.070	-736.44690	99.59393	-539.20392	678.49933	93.96207	-455.11163	-807.21948	-107.98837	661.80615	762.42090	-101.96386	666.03802	-42.82872	788.02448	-828.30719	
9	0.080	-736.43896	99.65691	-539.19611	678.48914	94.01613	-455.08038	-807.15826	-107.87978	661.78821	762.44611	-102.02668	666.06976	-42.81669	788.03448	-828.37512	
10	0.090	-736.46326	99.73950	-539.20355	678.39471	94.20487	-455.04523	-807.19897	-107.93810	661.73566	762.35730	-101.87186	666.03088	-42.80278	788.10388	-828.36566	
11	0.100	-736.39343	99.67795	-539.15692	678.47546	94.09926	-455.01889	-807.17041	-107.83003	661.82965	762.39429	-101.86855	666.01746	-42.81006	788.13660	-828.51794	
12	0.110	-736.42212	99.74413	-539.17426	678.48755	94.09934	-455.00546	-807.16229	-107.95266	661.80231	762.50092	-102.03603	666.14307	-42.79297	788.18140	-828.39960	
13	0.120	-736.37732	99.67603	-539.15204	678.47638	94.06509	-455.04581	-807.22754	-108.16199	661.82813	762.47992	-102.03714	666.13165	-42.77680	788.17566	-828.43793	
14	0.130	-736.36505	99.62531	-539.15741	678.48724	94.03642	-455.06329	-807.16370	-108.04568	661.87738	762.48480	-102.11055	666.16534	-42.87478	788.09064	-828.32898	
15	0.140	-736.40430	99.62447	-539.18878	678.50250	94.03926	-455.05942	-807.19293	-108.08777	661.83344	762.55438	-102.09056	666.23444	-42.73352	788.09442	-828.17493	
16	0.150	-736.40802	99.61288	-539.18201	678.37128	94.18970	-455.04950	-807.24481	-108.06498	661.87000	762.44501	-101.98349	666.15875	-42.93080	788.15424	-828.05731	
17	0.160	-736.40125	99.61285	-539.16870	678.34180	94.20579	-455.08618	-807.13733	-107.94663	661.91339	762.49152	-101.95303	666.11658	-42.72130	788.05963	-828.11469	
18	0.170	-736.37091	99.55675	-539.14740	678.40277	94.18987	-455.05667	-807.16302	-108.01602	661.90576	762.23395	-101.83910	666.02576	-43.00613	788.17468	-828.03125	
19	0.180	-736.42108	99.62576	-539.18829	678.48877	94.01421	-455.07730	-806.98108	-108.52551	661.98724	762.51337	-101.99185	666.13531	-42.77239	788.05743	-828.15356	
20	0.190	-736.42914	99.59296	-539.17804	678.49591	94.03674	-455.05539	-807.07416	-108.44579	661.81708	762.44226	-101.99373	666.09003	-42.86554	788.05603	-828.21307	
21	0.200	-736.37866	99.58862	-539.21008	678.53668	94.01687	-455.03937	-807.21710	-108.20591	661.77258	762.47668	-102.04233	666.13043	-42.76195	788.06323	-828.42383	
22	0.210	-736.48248	99.74036	-539.17859	678.45020	94.07836	-455.04575	-807.12494	-108.17650	661.83337	762.44495	-101.91509	666.07831	-42.79089	788.11847	-828.48334	
23	0.220	-736.44659	99.76798	-539.18805	678.43964	94.08954	-455.06110	-807.07690	-108.31251	661.87610	762.30096	-101.94546	666.04822	-42.80026	788.19592	-828.54340	
24	0.230	-736.43506	99.72354	-539.18854	678.48132	94.10853	-455.02576	-807.07550	-108.31909	661.89594	762.26288	-101.93855	666.03400	-42.78343	788.18512	-828.52625	
25	0.240	-736.47986	99.75446	-539.18799	678.46936	94.05662	-455.04715	-807.10425	-108.32444	661.88550	762.44080	-102.02192	666.04004	-42.76572	788.07019	-828.49292	
26	0.250	-736.50073	99.69279	-539.23151	678.40778	94.12787	-455.08450	-807.09271	-108.34689	661.79456	762.42963	-101.93024	665.99780	-42.86487	788.00317	-828.37848	
27	0.260	-736.46228	99.67712	-539.24561	678.48999	94.03027	-455.10211	-807.14539	-108.34863	661.83167	762.44891	-101.85159	666.09296	-42.81029	788.06958	-828.22937	
28	0.270	-736.42804	99.70528	-539.16644	678.48572	94.04919	-455.07346	-807.04486	-108.28253	661.88263	762.40179	-101.90430	666.07428	-42.79619	788.10669	-828.15863	
29	0.280	-736.41779	99.66077	-539.19995	678.41754	94.15013	-455.09875	-807.04962	-108.22471	661.86182	762.42694	-101.90626	666.07007	-42.77536	788.07080	-828.14807	
30	0.290	-736.44781	99.64541	-539.17316	678.49921	94.06504	-455.04764	-807.11328	-108.22322	661.86066	762.45770	-101.90196	666.10596	-42.82012	788.08191	-828.12439	
31	0.300	-736.44641	99.63647	-539.20056	678.42523	94.17051	-455.01682	-807.19928	-108.30509	661.78656	762.48798	-101.92215	666.13190	-42.82812	788.08502	-828.11548	
32	0.310	-736.41180	99.64641	-539.19366	678.47400	94.03623	-455.04819	-807.21466	-108.35587	661.82428	762.43262	-101.97849	666.14636	-42.85868	788.09680	-828.17188	
33	0.320	-736.37079	99.61688	-539.17487	678.46008	94.09512	-455.03427	-807.17432	-108.31744	661.82574	762.47711	-102.05051	666.14154	-42.82516	788.12921	-828.28973	
34	0.330	-736.37738	99.74906	-539.15637	678.36646	94.23183	-454.99911	-807.12378	-108.25910	661.86371	762.50916	-102.00350	666.27802	-42.72444	788.15295	-828.40063	
35	0.340	-736.39209	99.63972	-539.14368	678.45538	94.08024	-455.03360	-807.12799	-108.25340	661.85242	762.48096	-102.05396	666.19135	-42.80796	788.15698	-828.44366	
36	0.350	-736.40491	99.60523	-539.15515	678.46167	94.00241	-455.09866	-807.15344	-108.30008	661.82013	762.46136	-102.03878	666.07306	-42.80657	788.09583	-828.43188	
